<?xml version="1.0" encoding="UTF-8"?>
<!DOCTYPE svg PUBLIC "-//W3C//DTD SVG 1.1//EN" "http://www.w3.org/Graphics/SVG/1.1/DTD/svg11.dtd">
<!-- Creator: CorelDRAW X5 -->
<svg xmlns="http://www.w3.org/2000/svg" xml:space="preserve" width="1082px" height="767px" style="shape-rendering:geometricPrecision; text-rendering:geometricPrecision; image-rendering:optimizeQuality; fill-rule:evenodd; clip-rule:evenodd"
viewBox="0 0 794.619 563.672"
 xmlns:xlink="http://www.w3.org/1999/xlink">
 <defs>
  <style type="text/css">
   <![CDATA[
    .str0 {stroke:#373435;stroke-width:1.53044}
    .fil0 {fill:none}
    .fil1 {fill:#373435;fill-rule:nonzero}
   ]]>
  </style>
 </defs>
 <g id="Layer_x0020_1">
  <metadata id="CorelCorpID_0Corel-Layer"/>
  <circle class="fil0 str0" cx="357.758" cy="281.718" r="280.952"/>
  <g>
   <path class="fil1" d="M599.911 420.666l0 3.0817 -14.4958 9.39692 -1.99807 -3.08256 14.4949 -9.39605 0 3.0817 1.99894 -3.0817zm0 0l2.37634 1.54172 -2.37634 1.53998 0 -3.0817zm-15.4944 -7.86301l0.999469 -1.54085 14.4949 9.40386 -1.99894 3.0817 -14.4958 -9.40386 1.00034 -1.54085zm-460.038 7.56716l471.683 0 0 3.6734 -471.683 0 0 -3.6734zm-3.84952 0.29585l1.99894 3.0817 0 -3.0817 14.4949 9.39605 -1.99807 3.08256 -14.4958 -9.39692 0 -3.0817zm0 0l0 3.0817 -2.37634 -1.53998 2.37634 -1.54172zm15.4944 -7.86301l1.00034 1.54085 -14.4958 9.40386 -1.99894 -3.0817 14.4949 -9.40386 0.999469 1.54085z"/>
  </g>
  <g>
   <path class="fil1" d="M358.011 283.643l1.54085 -2.66785 17.2478 -0.890152 0.189136 3.66732 -17.2469 0.890152 1.54085 -2.66872 -3.2717 1.66925zm0 0l-1.28664 -2.5221 2.82749 -0.145756 -1.54085 2.66785zm9.48541 14.5539l-1.63542 0.833759 -7.85 -15.3877 3.2717 -1.66925 7.84913 15.3885 -1.63542 0.834626zm228.321 123.086l-234.621 -135.459 1.83583 -3.1806 234.621 135.459 -1.83583 3.1806zm3.48079 1.66752l-0.190003 -3.66732 -1.54085 2.66872 -7.8526 -15.3816 3.27083 -1.67012 7.8526 15.3816 -1.53998 2.66872zm0 0l1.53998 -2.66872 1.28751 2.5221 -2.82749 0.146624zm-17.3458 -0.937002l-0.0954354 -1.8341 17.2513 -0.896225 0.190003 3.66732 -17.2513 0.896225 -0.0945678 -1.83323z"/>
  </g>
  <path class="fil1" d="M443.282 275.245l0 -52.5823 23.3105 0c4.68935,0 8.25169,0.477177 10.6879,1.41939 2.43621,0.943076 4.38309,2.60799 5.85193,4.99561 1.45756,2.39977 2.1794,5.0442 2.1794,7.93329 0,3.73413 -1.19988,6.86788 -3.62394,9.42642 -2.41191,2.5594 -6.14604,4.18701 -11.1894,4.88543 1.84798,0.881476 3.24394,1.75081 4.19916,2.62014 2.03191,1.86012 3.9545,4.19916 5.77818,6.99021l9.14532 14.3118 -8.75316 0 -6.95377 -10.9447c-2.03277,-3.14677 -3.70984,-5.57083 -5.03205,-7.23574 -1.31007,-1.67706 -2.48566,-2.85265 -3.52591,-3.51376 -1.04111,-0.673254 -2.09351,-1.13828 -3.17106,-1.40811 -0.795584,-0.15877 -2.08136,-0.244662 -3.88075,-0.244662l-8.06776 0 0 23.347 -6.95464 0zm6.95464 -29.3707l14.9599 0c3.17106,0 5.66886,-0.330554 7.45611,-0.991661 1.80026,-0.661107 3.15891,-1.7135 4.08897,-3.15804 0.930929,-1.44455 1.39596,-3.01229 1.39596,-4.71364 0,-2.48566 -0.893623,-4.52971 -2.70603,-6.1339 -1.79939,-1.60332 -4.65204,-2.39977 -8.55709,-2.39977l-16.6379 0 0 17.397z"/>
  <path class="fil1" d="M273.429 398.203l0 6.20677 -34.7576 0c-0.0485853,-1.55473 0.196076,-3.04873 0.746999,-4.48113 0.881476,-2.37461 2.30173,-4.70063 4.24861,-7.00236 1.95816,-2.28958 4.77437,-4.94616 8.4469,-7.95845 5.71745,-4.68848 9.58605,-8.39832 11.5945,-11.1408 2.00761,-2.72945 3.01142,-5.3253 3.01142,-7.7615 0,-2.55854 -0.917915,-4.71364 -2.74247,-6.47659 -1.8367,-1.75081 -4.22345,-2.63228 -7.16199,-2.63228 -3.10946,0 -5.59512,0.930929 -7.45611,2.80407 -1.87314,1.86012 -2.81535,4.44382 -2.84051,7.73721l-6.63536 -0.673254c0.452884,-4.9583 2.16725,-8.72974 5.13009,-11.3247 2.96284,-2.59584 6.95377,-3.8929 11.9485,-3.8929 5.0442,0 9.03513,1.40724 11.9737,4.19916 2.95069,2.8032 4.41953,6.26837 4.41953,10.4059 0,2.10565 -0.428592,4.17487 -1.29792,6.20764 -0.856316,2.03191 -2.28872,4.174 -4.28505,6.415 -1.99547,2.25228 -5.31315,5.33744 -9.95305,9.2555 -3.86861,3.25608 -6.35426,5.45977 -7.45611,6.62322 -1.10185,1.15043 -2.00761,2.31388 -2.72945,3.48947l25.7953 0z"/>
  <path id="1" class="fil1" d="M282.072 404.409l0 -38.0874 5.80334 0 0 5.7669c1.48098,-2.69388 2.85265,-4.48113 4.11327,-5.33831 1.24934,-0.857184 2.63228,-1.29792 4.13843,-1.29792 2.1794,0 4.38309,0.698414 6.63536,2.08136l-2.22798 5.99942c-1.56688,-0.943076 -3.14677,-1.40811 -4.72579,-1.40811 -1.42025,0 -2.68087,0.428592 -3.80701,1.27276 -1.12701,0.857184 -1.92259,2.03277 -2.39977,3.53892 -0.722706,2.28872 -1.07755,4.79867 -1.07755,7.52899l0 19.9434 -6.4523 0z"/>
  <path class="fil1" d="M788.632 484.926l0 -4.81168c-2.41191,3.78358 -5.96211,5.66886 -10.6506,5.66886 -3.03658,0 -5.82763,-0.832891 -8.37402,-2.50995 -2.54726,-1.66491 -4.51757,-4.00308 -5.92567,-7.01537 -1.39596,-2.99928 -2.09351,-6.43929 -2.09351,-10.3452 0,-3.79486 0.636815,-7.24702 1.89743,-10.3452 1.27363,-3.09731 3.17106,-5.47192 5.7053,-7.11254 2.53424,-1.65277 5.37475,-2.48566 8.5085,-2.48566 2.28958,0 4.33364,0.490191 6.12175,1.45669 1.79939,0.967368 3.25608,2.22885 4.38222,3.78358l0 -18.8658 6.41586 0 0 52.5823 -5.98727 0zm-20.4084 -19.0133c0,4.88543 1.0281,8.53366 3.08517,10.9456 2.05707,2.41191 4.48113,3.62394 7.28433,3.62394 2.81621,0 5.21598,-1.16344 7.18629,-3.46517 1.97118,-2.30173 2.96284,-5.82763 2.96284,-10.5656 0,-5.21511 -1.00381,-9.03513 -3.01142,-11.4713 -2.00761,-2.44835 -4.48113,-3.66038 -7.43095,-3.66038 -2.8648,0 -5.26457,1.17559 -7.18716,3.51376 -1.92172,2.33817 -2.88909,6.03586 -2.88909,11.0792z"/>
  <line class="fil0 str0" x1="-0" y1="562.67" x2="737.844" y2= "562.67" />
  <g>
   <path class="fil1" d="M599.799 423.201l2.5889 0 7.89164 12.1741 -2.5889 1.67793 -7.89164 -12.1741 2.5889 0.000867595 -2.5889 -1.6788zm0 0l1.29532 -1.99547 1.29358 1.99547 -2.5889 0zm-6.60326 13.0131l-1.29445 -0.838964 7.89772 -12.1741 2.5889 1.6788 -7.89858 12.1741 -1.29358 -0.839832zm6.42801 122.23l0 -132.011 2.93941 0 0 132.011 -2.93941 0zm0.175254 3.23266l2.5889 -1.6788 -2.5889 0.000867595 7.89164 -12.1741 2.5889 1.67793 -7.89164 12.1741 -2.5889 0zm0 0l2.5889 0 -1.29358 1.99547 -1.29532 -1.99547zm-6.60326 -13.0131l1.29358 -0.839832 7.89858 12.1741 -2.5889 1.6788 -7.89772 -12.1741 1.29445 -0.838964z"/>
  </g>
 </g>
</svg>
